<!-- HW4 SVG Sprite -->
<svg xmlns="http://www.w3.org/2000/svg">


<!-- INFO LOGO -->
<!-- Antenna Logo -->
<symbol id="antenna">
  <path d="M61.5463 44.1952L44.6599 27.1851L46.534 17.9541C47.0176 18.1429 47.5318 18.2416 48.0508 18.2453H48.0636C50.4482 18.2735 52.404 16.3633 52.4323 13.9788C52.4606 11.5943 50.5503 9.6384 48.1658 9.61013C45.7812 9.582 43.8254 11.4921 43.7971 13.8767C43.7911 14.3869 43.8755 14.8941 44.0466 15.3749L34.1266 16.5856L17.9452 0.32C17.7467 0.117467 17.4757 0.00226667 17.1921 0C16.9121 0.00146667 16.644 0.112933 16.4455 0.3104L13.4204 3.3184C13.004 3.73493 13.004 4.41013 13.4204 4.82667L15.0481 6.47787C8.74201 18.0737 10.7903 32.4335 20.0871 41.8037C20.1724 41.8853 20.2713 41.9513 20.3793 41.9989C20.3121 42.3599 20.2771 42.7261 20.2748 43.0933V55.4667H7.47481C4.53081 55.4701 2.14495 57.856 2.14148 60.8V62.9333C2.14148 63.5224 2.61908 64 3.20815 64H52.2748C52.8639 64 53.3415 63.5224 53.3415 62.9333V60.8C53.338 57.856 50.9522 55.4701 48.0082 55.4667H35.2082V49.9829C37.2134 50.4035 39.2564 50.6179 41.3052 50.6229C46.2215 50.6176 51.0595 49.392 55.3852 47.056L57.0215 48.7019C57.22 48.9044 57.491 49.0196 57.7746 49.0219C58.0546 49.0204 58.3227 48.9089 58.5212 48.7115L61.5463 45.7035C61.9627 45.2869 61.9627 44.6117 61.5463 44.1952ZM46.5596 12.4661C47.395 11.6352 48.7458 11.6389 49.5766 12.4743C50.4075 13.3096 50.4038 14.6604 49.5684 15.4912C49.1686 15.8889 48.6275 16.1121 48.0635 16.112H48.0571C46.879 16.1059 45.9287 15.1459 45.9348 13.9676C45.9378 13.4036 46.1639 12.8639 46.5638 12.4661H46.5596ZM44.0487 19.4752L42.8519 25.3664L40.5009 23.0016L44.0487 19.4752ZM42.837 17.6715L38.997 21.4891L36.0263 18.5024L42.837 17.6715ZM48.0082 57.6C49.7755 57.6 51.2082 59.0327 51.2082 60.8V61.8667H4.27481V60.8C4.27481 59.0327 5.70748 57.6 7.47481 57.6H48.0082ZM33.0748 53.3333V55.4667H22.4081V53.3333H33.0748ZM22.4081 51.2V43.0933C22.4081 40.5056 24.8007 38.4 27.7415 38.4C30.6823 38.4 33.0748 40.5056 33.0748 43.0933V51.2H22.4081ZM35.2082 47.808V43.0933C35.2082 39.3291 31.8588 36.2667 27.7415 36.2667C25.0793 36.2259 22.59 37.5809 21.1793 39.8389C13.0639 31.2913 11.2364 18.5485 16.6221 8.06467L53.8258 45.4816C48.081 48.404 41.4955 49.2268 35.2082 47.808ZM57.7863 46.4405L56.2834 44.9291L17.1815 5.59147L15.6721 4.07893L17.1815 2.57493L33.0513 18.5344C33.0588 18.5344 33.0631 18.5483 33.0706 18.5536L59.2999 44.9365L57.7863 46.4405Z" fill="#2E2F42"/>
  <path d="M27.7511 40.5333H27.7415C25.9742 40.5306 24.5394 41.9612 24.5367 43.7285C24.534 45.4958 25.9646 46.9306 27.7319 46.9333H27.7415C29.5088 46.936 30.9436 45.5054 30.9463 43.7381C30.9489 41.9708 29.5184 40.536 27.7511 40.5333ZM28.4978 44.4896C28.297 44.6893 28.0248 44.801 27.7415 44.8C27.1524 44.7969 26.6774 44.3169 26.6804 43.7278C26.6819 43.4458 26.795 43.176 26.9948 42.977C27.1934 42.7796 27.4615 42.6681 27.7415 42.6666C28.3306 42.6697 28.8056 43.1497 28.8026 43.7388C28.8011 44.0208 28.688 44.2906 28.4882 44.4896H28.4978Z" fill="#4D5AE5"/>
</symbol>

<!-- Clock Logo -->
<symbol id="clock">
    <g clip-path="url(#clip0_297080_1787)">
    <path d="M62.5933 30.6025C62.5899 13.6978 48.8828 -0.00341734 31.9775 6.39362e-07C15.0728 0.00341861 1.37158 13.7109 1.375 30.6157C1.37793 43.9316 9.98877 55.7178 22.6738 59.7681C22.7949 59.8062 22.9209 59.8257 23.0474 59.8252C23.2886 59.8247 23.5249 59.7603 23.7324 59.6377C24.0024 59.478 24.2041 59.2241 24.2988 58.9248L32.0288 34.4248C34.1421 34.4141 35.8462 32.6919 35.835 30.5791C35.8242 28.4658 34.1025 26.7617 31.9893 26.7725C31.4209 26.7749 30.8599 26.9058 30.3491 27.1553L20.1372 16.9419C19.6304 16.4526 18.8232 16.4668 18.334 16.9731C17.8564 17.4678 17.8564 18.251 18.334 18.7456L28.5405 28.9639C27.7573 30.5625 28.2051 32.4922 29.6133 33.582L22.248 56.9277C7.69238 51.5659 0.239258 35.4199 5.60108 20.8643C10.9629 6.30859 27.1089 -1.14453 41.6646 4.21729C56.2202 9.5791 63.6733 25.7256 58.3115 40.2808C55.6919 47.3921 50.3096 53.1431 43.3872 56.2275L42.5913 52.479C42.4458 51.79 41.7686 51.3496 41.0796 51.4956C40.8623 51.542 40.6606 51.6441 40.4946 51.792L32.8208 58.6431C32.2944 59.1113 32.2476 59.9175 32.7163 60.4439C32.8687 60.6148 33.064 60.7417 33.2827 60.8115L43.0801 63.9385C43.7505 64.1538 44.4688 63.7852 44.6841 63.1143C44.7524 62.9024 44.7637 62.6768 44.7178 62.459L43.9356 58.7808C55.2642 54.0049 62.6196 42.8965 62.5933 30.6025ZM31.9844 29.3272C32.6885 29.3272 33.2598 29.8984 33.2598 30.6025C33.2598 31.3071 32.6885 31.8779 31.9844 31.8779C31.2798 31.8779 30.709 31.3071 30.709 30.6025C30.709 29.8984 31.2798 29.3272 31.9844 29.3272ZM36.1851 59.0552L40.5532 55.1587L41.7588 60.8394L36.1851 59.0552Z" fill="#2E2F42"/>
    <path d="M30.709 6.37012V8.9209C30.709 9.62549 31.2798 10.1963 31.9844 10.1963C32.6885 10.1963 33.2598 9.62549 33.2598 8.9209V6.37012C33.2598 5.66602 32.6885 5.09473 31.9844 5.09473C31.2798 5.09473 30.709 5.66602 30.709 6.37012Z" fill="#4D5AE5"/>
    <path d="M7.75195 29.3271C7.04736 29.3271 6.47656 29.8984 6.47656 30.6025C6.47656 31.3071 7.04736 31.8779 7.75195 31.8779H10.3027C11.0073 31.8779 11.5781 31.3071 11.5781 30.6025C11.5781 29.8984 11.0073 29.3271 10.3027 29.3271H7.75195Z" fill="#4D5AE5"/>
    <path d="M56.2162 31.8779C56.9208 31.8779 57.4916 31.3071 57.4916 30.6025C57.4916 29.8984 56.9208 29.3271 56.2162 29.3271H53.6655C52.9614 29.3271 52.3901 29.8984 52.3901 30.6025C52.3901 31.3071 52.9614 31.8779 53.6655 31.8779H56.2162Z" fill="#4D5AE5"/>
  </g>
  <defs>
    <clipPath id="clip0_297080_1787">
      <rect width="64" height="64" fill="white"/>
    </clipPath>
  </defs>
</symbol>

<!-- Diagram Logo -->
<symbol id="diagram">
    <g clip-path="url(#clip0_297080_1794)">
    <path d="M29.8511 29.9292H31.9833V39.5242H29.8511V29.9292Z" fill="#4D5AE5"/>
    <path d="M38.3799 34.1936H40.5121V39.5242H38.3799V34.1936Z" fill="#4D5AE5"/>
    <path d="M21.3221 37.392H23.4544V39.5242H21.3221V37.392Z" fill="#4D5AE5"/>
    <path d="M14.9255 36.3258H17.0578V39.5241H14.9255V36.3258Z" fill="#4D5AE5"/>
    <path d="M3.19833 56.5819H54.3715C56.1378 56.5819 57.5699 55.1499 57.5699 53.3836V49.1192C57.5699 47.3529 56.1378 45.9209 54.3715 45.9209H53.3054V19.3343L59.3611 13.5977C60.7666 14.2905 62.4678 13.8699 63.3876 12.6003C64.308 11.3312 64.1789 9.58364 63.0826 8.46339C61.9863 7.34314 60.2424 7.17604 58.953 8.06776C57.6641 8.96 57.206 10.6513 57.8681 12.0719L53.3054 16.3973V13.9376C53.3054 12.1713 51.8734 10.7393 50.1071 10.7393H7.46276C5.6965 10.7393 4.26443 12.1713 4.26443 13.9376V45.9209H3.19833C1.43206 45.9209 0 47.3529 0 49.1192V53.3836C0 55.1499 1.43206 56.5819 3.19833 56.5819ZM60.7682 9.67317C61.3569 9.67317 61.8343 10.1505 61.8343 10.7393C61.8343 11.328 61.3569 11.8054 60.7682 11.8054C60.1794 11.8054 59.7021 11.328 59.7021 10.7393C59.7021 10.1505 60.1794 9.67317 60.7682 9.67317ZM6.39665 13.9376C6.39665 13.3489 6.874 12.8715 7.46276 12.8715H50.1071C50.6958 12.8715 51.1732 13.3489 51.1732 13.9376V18.4149L49.041 20.441V16.0698C49.041 15.4811 48.5636 15.0037 47.9749 15.0037H9.59498C9.00622 15.0037 8.52887 15.4811 8.52887 16.0698V42.7225C8.52887 43.3113 9.00622 43.7886 9.59498 43.7886H47.9749C48.5636 43.7886 49.041 43.3113 49.041 42.7225V23.3738L51.1732 21.3535V45.9209H6.39665V13.9376ZM15.9916 27.797C14.5492 27.7929 13.2826 28.7538 12.899 30.1442C12.5153 31.5346 13.1093 33.0094 14.3498 33.7455C15.5898 34.4815 17.1697 34.2967 18.2061 33.2936L21.912 35.1531C22.3425 35.3686 22.8646 35.2676 23.1847 34.9079L31.0624 26.0453L38.8062 31.848C39.2216 32.1593 39.8016 32.126 40.1784 31.7694L46.9088 25.3941V41.6564H10.6611V17.1359H46.9088V22.4566L39.3658 29.5997L31.5569 23.7455C31.1134 23.4134 30.4892 23.4758 30.1207 23.8897L22.1348 32.8751L19.1493 31.3821C19.1712 31.2541 19.1847 31.125 19.19 30.9953C19.19 29.2291 17.7579 27.797 15.9916 27.797ZM17.0577 30.9953C17.0577 31.5841 16.5804 32.0615 15.9916 32.0615C15.4029 32.0615 14.9255 31.5841 14.9255 30.9953C14.9255 30.4066 15.4029 29.9292 15.9916 29.9292C16.5804 29.9292 17.0577 30.4066 17.0577 30.9953ZM23.4544 48.0531H34.1155V49.1192C34.1155 49.7079 33.6381 50.1853 33.0494 50.1853H24.5205C23.9317 50.1853 23.4544 49.7079 23.4544 49.1192V48.0531ZM2.13222 49.1192C2.13222 48.5304 2.60957 48.0531 3.19833 48.0531H21.3222V49.1192C21.3222 50.8855 22.7542 52.3175 24.5205 52.3175H33.0494C34.8156 52.3175 36.2477 50.8855 36.2477 49.1192V48.0531H54.3715C54.9603 48.0531 55.4376 48.5304 55.4376 49.1192V53.3836C55.4376 53.9724 54.9603 54.4497 54.3715 54.4497H3.19833C2.60957 54.4497 2.13222 53.9724 2.13222 53.3836V49.1192Z" fill="#2E2F42"/>
  </g>
  <defs>
    <clipPath id="clip0_297080_1794">
      <rect width="64" height="64" fill="white"/>
    </clipPath>
  </defs>
</symbol>

<!-- Astronaut Logo -->
<symbol id="astronaut">
  <path d="M63.9481 9.04812C63.8222 8.66299 63.4894 8.38149 63.0873 8.32274L59.2665 7.76698L57.5566 4.30455C57.1982 3.57492 56.0025 3.57492 55.6441 4.30455L53.9342 7.76698L50.1132 8.32286C49.7111 8.38149 49.3784 8.66212 49.2514 9.04825C49.1266 9.43438 49.23 9.85889 49.5212 10.1416L52.2872 12.8372L51.6344 16.6431C51.5661 17.0431 51.7304 17.4474 52.0579 17.6864C52.3897 17.9275 52.8227 17.9573 53.1822 17.7674L56.5998 15.97L60.0175 17.7674C60.1733 17.8495 60.345 17.89 60.5146 17.89C60.7354 17.89 60.9563 17.8218 61.1419 17.6863C61.4704 17.4474 61.6347 17.043 61.5654 16.643L60.9127 12.8371L63.6786 10.1415C63.9683 9.85776 64.073 9.43425 63.9481 9.04812ZM59.0223 11.702C58.7716 11.9463 58.6564 12.3004 58.7161 12.6461L59.098 14.8743L57.097 13.8226C56.9412 13.7404 56.7706 13.6999 56.5998 13.6999C56.4292 13.6999 56.2596 13.7404 56.1027 13.8226L54.1016 14.8743L54.4834 12.6461C54.5432 12.3004 54.4279 11.9474 54.1773 11.702L52.557 10.1234L54.7949 9.79801C55.1427 9.74788 55.4424 9.52926 55.5982 9.2145L56.5987 7.18785L57.5992 9.2145C57.755 9.52913 58.0547 9.74788 58.4025 9.79801L60.6404 10.1234L59.0223 11.702Z" fill="#4D5AE5"/>
  <path d="M52.267 41.0444H50.1335V43.1778H52.267V41.0444Z" fill="#4D5AE5"/>
  <path d="M52.267 45.3112H50.1335V47.4446H52.267V45.3112Z" fill="#4D5AE5"/>
  <path d="M54.4004 43.1778H52.267V45.3112H54.4004V43.1778Z" fill="#4D5AE5"/>
  <path d="M50.1337 43.1778H48.0002V45.3112H50.1337V43.1778Z" fill="#4D5AE5"/>
  <path d="M44.8001 52.778H42.6667V54.9113H44.8001V52.778Z" fill="#4D5AE5"/>
  <path d="M44.8001 57.0446H42.6667V59.1781H44.8001V57.0446Z" fill="#4D5AE5"/>
  <path d="M46.9336 54.9113H44.8002V57.0448H46.9336V54.9113Z" fill="#4D5AE5"/>
  <path d="M42.6667 54.9113H40.5333V57.0448H42.6667V54.9113Z" fill="#4D5AE5"/>
  <path d="M32 48.5113H29.8666V50.6447H32V48.5113Z" fill="#4D5AE5"/>
  <path d="M32 52.778H29.8666V54.9113H32V52.778Z" fill="#4D5AE5"/>
  <path d="M34.1334 50.6445H32V52.7779H34.1334V50.6445Z" fill="#4D5AE5"/>
  <path d="M29.8666 50.6445H27.7332V52.7779H29.8666V50.6445Z" fill="#4D5AE5"/>
  <path d="M11.733 12.2439H9.59961V14.3773H11.733V12.2439Z" fill="#4D5AE5"/>
  <path d="M11.733 16.5108H9.59961V18.6442H11.733V16.5108Z" fill="#4D5AE5"/>
  <path d="M13.8663 14.3774H11.7329V16.5108H13.8663V14.3774Z" fill="#4D5AE5"/>
  <path d="M9.59959 14.3774H7.46619V16.5108H9.59959V14.3774Z" fill="#4D5AE5"/>
  <path d="M49.4295 28.3189C48.8546 27.5434 48.0109 27.0443 47.053 26.9098C46.0908 26.7733 45.1414 27.026 44.3734 27.6138L41.8699 29.5327L41.8688 29.5338L38.0734 32.368L35.3577 31.2864C40.2004 29.1136 43.585 24.2698 43.585 18.6462C43.585 11.0002 37.3396 4.77933 29.6627 4.77933C21.9858 4.77933 15.7405 11.0002 15.7405 18.6462C15.7405 21.4175 16.5692 23.9945 17.9805 26.163L12.4529 26.115C12.4497 26.115 12.4465 26.115 12.4433 26.115C12.4262 26.115 12.4124 26.1235 12.3964 26.1247C12.2908 26.1289 12.1873 26.1503 12.086 26.1865C12.0604 26.1962 12.0338 26.2015 12.0093 26.2132C11.9965 26.2185 11.9837 26.2195 11.9709 26.2259L5.50468 29.4185C5.50356 29.4185 5.50256 29.4185 5.50256 29.4195L1.71575 31.2405C1.67412 31.2586 1.6315 31.2831 1.58987 31.3109C0.0804746 32.3156 -0.433659 34.289 0.393104 35.9018C0.833611 36.7594 1.5835 37.391 2.50514 37.68C2.86039 37.7908 3.22302 37.8453 3.58353 37.8453C4.16279 37.8453 4.73667 37.7035 5.26243 37.423L8.03798 35.9467L12.566 33.6085L15.2797 33.5925L4.39629 44.4237C4.39529 44.4248 4.39417 44.4248 4.39304 44.4258L1.71563 47.0925C1.08312 47.7219 0.73536 48.557 0.73536 49.4478C0.73536 50.3374 1.08312 51.1747 1.71563 51.8052C2.36526 52.4516 3.21965 52.7758 4.07404 52.7758C4.92955 52.7758 5.78281 52.4516 6.43457 51.8052L9.06287 49.1875L12.5445 46.588L14.3462 48.3821L10.8229 51.8904C10.8219 51.8916 10.8208 51.8916 10.8196 51.8926L8.14223 54.5592C7.50972 55.1886 7.16196 56.0237 7.16196 56.9145C7.16196 57.8041 7.50972 58.6414 8.14223 59.2719C8.79186 59.9183 9.64738 60.2426 10.5018 60.2426C11.3562 60.2426 12.2117 59.9183 12.8623 59.2719L15.5407 56.6052L19.8255 52.3386C19.8267 52.3374 19.8267 52.3364 19.8277 52.3353L21.8469 50.3353L21.8394 50.3278C21.8522 50.315 21.8703 50.3106 21.8832 50.2969L32.2151 38.9805L39.1571 39.9682C39.2072 39.9757 39.2573 39.9789 39.3075 39.9789C39.4366 39.9789 39.5613 39.948 39.6819 39.9021C39.7171 39.8894 39.748 39.8722 39.7811 39.8552C39.8195 39.836 39.86 39.8254 39.8964 39.8009L46.3231 35.5342C46.3466 35.5182 46.3593 35.4925 46.3817 35.4755C46.4073 35.4553 46.4393 35.4468 46.4627 35.4243L49.0056 33.0424C50.3288 31.8026 50.5111 29.7717 49.4295 28.3189ZM4.26079 35.5403C3.91416 35.7259 3.52053 35.7632 3.14402 35.6438C2.77064 35.5275 2.46776 35.2725 2.29063 34.928C1.9685 34.3008 2.15513 33.537 2.71939 33.1243L5.34668 31.8602L5.97919 33.7088L6.24482 34.4853L4.26079 35.5403ZM11.255 31.8849L8.15848 33.4849L7.64759 31.9915L7.28071 30.9184L11.3342 28.9172L11.255 31.8849ZM41.4539 18.644C41.4539 20.4808 41.0155 22.2132 40.256 23.763L31.8932 19.9646C31.8057 18.8179 31.2106 17.8142 30.3167 17.189L33.2447 7.46837C38.0001 8.98102 41.4539 13.4173 41.4539 18.644ZM17.876 18.644C17.876 12.1746 23.1646 6.91049 29.6649 6.91049C30.1706 6.91049 30.6655 6.95311 31.1551 7.01499L28.291 16.5224C28.2527 16.5213 28.2164 16.5106 28.1769 16.5106C26.1118 16.5106 24.4317 18.1853 24.4317 20.2441C24.4317 22.3027 26.1118 23.9775 28.1769 23.9775C29.5657 23.9775 30.7657 23.2106 31.4132 22.0883L39.1381 25.5978C36.9887 28.4906 33.5486 30.3776 29.6648 30.3776C23.1646 30.3776 17.876 25.1135 17.876 18.644ZM29.7887 20.2441C29.7887 21.1262 29.0654 21.8441 28.1769 21.8441C27.2884 21.8441 26.5651 21.1262 26.5651 20.2441C26.5651 19.3619 27.2884 18.644 28.1769 18.644C29.0654 18.644 29.7887 19.3619 29.7887 20.2441ZM4.92968 50.2925C4.45717 50.7608 3.69228 50.7598 3.2209 50.2936C2.99365 50.0664 2.86889 49.7668 2.86889 49.4478C2.86889 49.1299 2.99365 48.8301 3.2209 48.6051L5.14505 46.6882L6.84746 48.3832L4.92968 50.2925ZM11.3574 57.7594C10.8849 58.2276 10.119 58.2288 9.6475 57.7605C9.42025 57.5333 9.29549 57.2336 9.29549 56.9146C9.29549 56.5967 9.42025 56.297 9.6475 56.072L11.5729 54.1541L12.3783 54.9552L13.2764 55.8491L11.3574 57.7594ZM18.3208 50.8217C18.3196 50.8227 18.3186 50.8227 18.3175 50.8238L14.7878 54.3438L13.9824 53.5427L13.0843 52.6488L16.6107 49.1384C16.6107 49.1384 16.6107 49.1384 16.6107 49.1374C16.6119 49.1363 16.6129 49.1363 16.614 49.1353C16.694 49.0553 16.7441 48.9593 16.7932 48.8644C16.8071 48.8366 16.8337 48.8131 16.8455 48.7844C16.8786 48.7023 16.8839 48.6138 16.8967 48.5272C16.9031 48.4781 16.9245 48.4324 16.9245 48.3821C16.9245 48.3106 16.8989 48.2414 16.884 48.1709C16.8712 48.1069 16.8712 48.0417 16.8466 47.98C16.8061 47.8797 16.7367 47.7912 16.6642 47.7047C16.644 47.6812 16.6365 47.6514 16.6141 47.629C16.6141 47.629 16.6141 47.629 16.613 47.629C16.6119 47.628 16.6119 47.6257 16.6109 47.6247L13.3969 44.4247C13.3628 44.3906 13.3191 44.3767 13.2807 44.3479C13.2242 44.3042 13.1698 44.2637 13.1068 44.2327C13.0461 44.2028 12.9842 44.1847 12.9202 44.1676C12.8519 44.1483 12.7858 44.1334 12.7143 44.1281C12.6492 44.1238 12.5884 44.1302 12.5234 44.1377C12.4519 44.1462 12.3848 44.1558 12.3154 44.1782C12.2482 44.1996 12.1885 44.2326 12.1267 44.2678C12.0872 44.2902 12.0424 44.2977 12.005 44.3254L8.45836 46.973L6.6567 45.1788L11.4547 40.4065L20.1759 48.9838L18.3208 50.8217ZM31.9584 36.7883C31.9275 36.7841 31.8986 36.7958 31.8677 36.7937C31.7898 36.7894 31.7152 36.7948 31.6373 36.8076C31.5766 36.8182 31.519 36.8299 31.4613 36.8502C31.3931 36.8737 31.3312 36.9057 31.2682 36.9441C31.2085 36.9803 31.1541 37.0187 31.1018 37.0667C31.0762 37.0891 31.0453 37.0998 31.0218 37.1253L21.6253 47.4167L12.9692 38.9035L18.6354 33.2671C19.0525 32.8511 19.0546 32.1759 18.6386 31.7577C18.4285 31.5476 18.1523 31.4441 17.876 31.4452V31.4442L13.4386 31.4709L13.4941 28.2559L19.7022 28.3093C22.2323 30.8971 25.7609 32.511 29.6649 32.511C30.5396 32.511 31.393 32.4204 32.2239 32.2656C32.3039 32.3296 32.3827 32.3948 32.4831 32.4353L37.3024 34.3553L37.6074 35.8721L37.9637 37.6427L31.9584 36.7883ZM40.0406 37.1446L39.4145 34.0288L42.3073 31.8687L43.0647 32.8735L44.2007 34.3818L40.0406 37.1446ZM47.5478 31.4826L45.8721 33.0528L44.0097 30.5802L45.6726 29.3056C45.9829 29.0667 46.3745 28.9696 46.7585 29.0197C47.1446 29.0741 47.486 29.2757 47.7185 29.5882C48.1516 30.1717 48.078 30.9856 47.5478 31.4826Z" fill="#2E2F42"/>
  <path d="M27.2041 37.0881L22.9182 32.8214C22.5033 32.4065 21.829 32.4065 21.413 32.8214L17.1282 37.0881C16.9277 37.2897 16.8146 37.5606 16.8146 37.8443C16.8146 38.1281 16.9266 38.4001 17.1282 38.6006L21.413 42.8673C21.621 43.0742 21.8942 43.1777 22.1662 43.1777C22.4382 43.1777 22.7112 43.0742 22.9182 42.8673L27.2041 38.6006C27.4046 38.4001 27.5187 38.1281 27.5187 37.8443C27.5187 37.5606 27.4056 37.2886 27.2041 37.0881ZM22.1662 40.606L19.3927 37.8443L22.1662 35.0827L24.9406 37.8443L22.1662 40.606Z" fill="#2E2F42"/>
  <path d="M34.3285 10.1415L33.8132 12.2131C33.9551 12.2483 37.2885 13.1166 37.2885 16.5108H39.4219C39.4218 12.4765 36.0906 10.5799 34.3285 10.1415Z" fill="#2E2F42"/>
  <path d="M39.422 18.644H37.2886V20.7775H39.422V18.644Z" fill="#2E2F42"/>
</symbol>

<!-- SOCMED LOGOS -->
<!-- Instagram Logo -->
<symbol id="instagram">    
  <path d="M15.9843 4.70392C15.9468 3.85378 15.8093 3.26932 15.6124 2.76287C15.4092 2.22529 15.0967 1.74399 14.6872 1.34389C14.2871 0.937561 13.8026 0.621826 13.2713 0.421835C12.7619 0.224897 12.1805 0.0874194 11.3303 0.0499365C10.4738 0.00927917 10.2019 -0.00012207 8.02963 -0.00012207C5.85733 -0.00012207 5.58543 0.00927917 4.73212 0.0467621C3.88197 0.084245 3.29751 0.221845 2.79119 0.418661C2.25348 0.621826 1.77219 0.934387 1.37209 1.34389C0.965758 1.74399 0.650145 2.22846 0.450033 2.75982C0.253096 3.26932 0.115618 3.85061 0.0781347 4.70075C0.0374774 5.55724 0.0280762 5.82914 0.0280762 8.00144C0.0280762 10.1737 0.0374774 10.4456 0.0749603 11.299C0.112443 12.1491 0.250043 12.7336 0.446981 13.24C0.650145 13.7776 0.965758 14.2589 1.37209 14.659C1.77219 15.0653 2.25666 15.3811 2.78801 15.581C3.29751 15.778 3.8788 15.9155 4.72906 15.9529C5.58226 15.9906 5.85428 15.9998 8.02658 15.9998C10.1989 15.9998 10.4708 15.9906 11.3241 15.9529C12.1742 15.9155 12.7587 15.778 13.265 15.581C14.3403 15.1653 15.1904 14.3152 15.6062 13.24C15.803 12.7305 15.9406 12.1491 15.9781 11.299C16.0156 10.4456 16.025 10.1737 16.025 8.00144C16.025 5.82914 16.0218 5.55724 15.9843 4.70392ZM14.5435 11.2364C14.509 12.0179 14.3778 12.4398 14.2684 12.7211C13.9995 13.4181 13.4463 13.9714 12.7493 14.2402C12.468 14.3496 12.043 14.4809 11.2646 14.5152C10.4207 14.5528 10.1676 14.562 8.03281 14.562C5.89799 14.562 5.64172 14.5528 4.80085 14.5152C4.01945 14.4809 3.5975 14.3496 3.31619 14.2402C2.96932 14.112 2.65359 13.9088 2.39731 13.6432C2.13163 13.3837 1.92847 13.0712 1.80027 12.7243C1.69087 12.443 1.55962 12.0179 1.52532 11.2396C1.48771 10.3957 1.47843 10.1425 1.47843 8.00767C1.47843 5.87285 1.48771 5.61658 1.52532 4.77584C1.55962 3.99443 1.69087 3.57248 1.80027 3.29117C1.92847 2.94418 2.13163 2.62857 2.40049 2.37217C2.65981 2.10649 2.97237 1.90333 3.31937 1.77525C3.60067 1.66585 4.0258 1.5346 4.80403 1.50017C5.64794 1.46269 5.90117 1.45329 8.03586 1.45329C10.1738 1.45329 10.4269 1.46269 11.2678 1.50017C12.0492 1.5346 12.4712 1.66585 12.7525 1.77525C13.0993 1.90333 13.4151 2.10649 13.6714 2.37217C13.937 2.63162 14.1402 2.94418 14.2684 3.29117C14.3778 3.57248 14.509 3.99748 14.5435 4.77584C14.581 5.61975 14.5904 5.87285 14.5904 8.00767C14.5904 10.1425 14.581 10.3925 14.5435 11.2364Z" fill="#F4F4FD"/>
  <path d="M8.02967 3.89124C5.76055 3.89124 3.91949 5.73217 3.91949 8.00141C3.91949 10.2707 5.76055 12.1116 8.02967 12.1116C10.2989 12.1116 12.1398 10.2707 12.1398 8.00141C12.1398 5.73217 10.2989 3.89124 8.02967 3.89124ZM8.02967 10.6676C6.55758 10.6676 5.3635 9.47362 5.3635 8.00141C5.3635 6.5292 6.55758 5.33524 8.02967 5.33524C9.50188 5.33524 10.6958 6.5292 10.6958 8.00141C10.6958 9.47362 9.50188 10.6676 8.02967 10.6676Z" fill="#F4F4FD"/>
  <path d="M13.262 3.72871C13.262 4.2586 12.8324 4.68825 12.3024 4.68825C11.7725 4.68825 11.3428 4.2586 11.3428 3.72871C11.3428 3.19869 11.7725 2.76917 12.3024 2.76917C12.8324 2.76917 13.262 3.19869 13.262 3.72871Z" fill="#F4F4FD"/>
</symbol>

<!-- Twitter Logo -->
<symbol id="twitter">
    <path d="M16 3.03888C15.405 3.29988 14.771 3.47288 14.11 3.55688C14.79 3.15088 15.309 2.51288 15.553 1.74388C14.919 2.12188 14.219 2.38888 13.473 2.53788C12.871 1.89688 12.013 1.49988 11.077 1.49988C9.261 1.49988 7.799 2.97388 7.799 4.78088C7.799 5.04088 7.821 5.29088 7.875 5.52888C5.148 5.39588 2.735 4.08888 1.114 2.09788C0.831 2.58888 0.665 3.15088 0.665 3.75588C0.665 4.89188 1.25 5.89888 2.122 6.48188C1.595 6.47188 1.078 6.31888 0.64 6.07788C0.64 6.08788 0.64 6.10088 0.64 6.11388C0.64 7.70788 1.777 9.03188 3.268 9.33688C3.001 9.40988 2.71 9.44488 2.408 9.44488C2.198 9.44488 1.986 9.43288 1.787 9.38888C2.212 10.6879 3.418 11.6429 4.852 11.6739C3.736 12.5469 2.319 13.0729 0.785 13.0729C0.516 13.0729 0.258 13.0609 0 13.0279C1.453 13.9649 3.175 14.4999 5.032 14.4999C11.068 14.4999 14.368 9.49988 14.368 5.16588C14.368 5.02088 14.363 4.88088 14.356 4.74188C15.007 4.27988 15.554 3.70288 16 3.03888Z" fill="#F4F4FD"/>
</symbol>

<!-- Facebook Logo -->
<symbol id="facebook">
    <path d="M10.6647 2.65654H12.1254V0.112545C11.8734 0.0778779 11.0067 -0.00012207 9.99736 -0.00012207C7.89136 -0.00012207 6.4487 1.32454 6.4487 3.75921V5.99988H4.12469V8.84388H6.4487V15.9999H9.29803V8.84455H11.528L11.882 6.00055H9.29736V4.04121C9.29803 3.21921 9.51936 2.65654 10.6647 2.65654Z" fill="#F4F4FD"/>
</symbol>

<!-- LinkedIn Logo -->
<symbol id="linkedin">
    <path d="M15.9961 15.9999V15.9992H16.0001V10.1312C16.0001 7.26053 15.3821 5.04919 12.0261 5.04919C10.4128 5.04919 9.33009 5.93453 8.88809 6.77386H8.84143V5.31719H5.65942V15.9992H8.97276V10.7099C8.97276 9.31719 9.23676 7.97053 10.9614 7.97053C12.6608 7.97053 12.6861 9.55986 12.6861 10.7992V15.9999H15.9961Z" fill="#F4F4FD"/>
    <path d="M0.264038 5.31787H3.58137V15.9999H0.264038V5.31787Z" fill="#F4F4FD"/>
    <path d="M1.92139 -0.00012207C0.860728 -0.00012207 6.10352e-05 0.860545 6.10352e-05 1.92121C6.10352e-05 2.98188 0.860728 3.86055 1.92139 3.86055C2.98206 3.86055 3.84273 2.98188 3.84273 1.92121C3.84206 0.860545 2.98139 -0.00012207 1.92139 -0.00012207V-0.00012207Z" fill="#F4F4FD"/>
</symbol>

<!-- CUSTOMER LOGOS -->
<!-- Client 1 -->
<symbol id="client-1">
  <path d="m38 7 7.008 6.676L32 13.67v32.39h34V33.676l7 6.669V7H38Zm27.692 25.892-19.87-18.93h19.87v18.93Zm-6.169 8.43H37.38V19.538h1.565v20.31h20.578v1.476Zm-17.727 10.74-.825-1.698h-.681l1.196 2.246v1.309h.617V52.61l1.197-2.246h-.679l-.825 1.697Zm3.042-1.698h.146l1.343 3.555h-.644l-.288-.832h-1.376l-.287.832h-.642l1.338-3.555h.41Zm-.652 2.237h1.041l-.52-1.508-.52 1.508Zm4.296-.59a9.549 9.549 0 0 1-.077-.099 1.82 1.82 0 0 1-.213-.349.86.86 0 0 1-.075-.352c0-.185.038-.344.114-.478a.77.77 0 0 1 .325-.308c.14-.073.304-.11.49-.11a.94.94 0 0 1 .467.11.766.766 0 0 1 .35.984.896.896 0 0 1-.17.254 1.729 1.729 0 0 1-.248.218l-.247.18.704.83a1.407 1.407 0 0 0 .153-.664h.508c0 .173-.017.336-.051.49a1.523 1.523 0 0 1-.26.587l.52.615h-.68l-.207-.243a1.384 1.384 0 0 1-.364.2 1.624 1.624 0 0 1-.552.092c-.236 0-.44-.043-.613-.13a.97.97 0 0 1-.4-.356.975.975 0 0 1-.14-.52.77.77 0 0 1 .09-.38c.061-.111.143-.214.247-.309.096-.087.206-.174.33-.261Zm.292.358-.074.053a.914.914 0 0 0-.193.203.59.59 0 0 0-.034.6.515.515 0 0 0 .198.203.65.65 0 0 0 .32.074.91.91 0 0 0 .393-.09 1.06 1.06 0 0 0 .18-.113l-.79-.93Zm.14-.65.218-.146a.791.791 0 0 0 .22-.2.444.444 0 0 0 .066-.25.354.354 0 0 0-.374-.342.362.362 0 0 0-.339.21.502.502 0 0 0 .015.435c.037.077.088.157.154.242l.04.052Zm6.22 1.043h-.611a1.108 1.108 0 0 1-.112.393.554.554 0 0 1-.247.242.925.925 0 0 1-.422.083.748.748 0 0 1-.369-.086.707.707 0 0 1-.254-.242 1.192 1.192 0 0 1-.146-.373 2.365 2.365 0 0 1-.047-.488v-.3c0-.19.017-.357.051-.504a1.11 1.11 0 0 1 .16-.373.69.69 0 0 1 .26-.23.809.809 0 0 1 .367-.078c.17 0 .309.03.415.088.105.057.185.14.239.25.055.108.091.24.107.392h.61a1.53 1.53 0 0 0-.2-.632 1.128 1.128 0 0 0-.454-.432 1.509 1.509 0 0 0-.717-.157c-.223 0-.424.04-.603.118-.178.078-.33.19-.457.34a1.532 1.532 0 0 0-.293.529c-.067.206-.1.438-.1.693v.296c0 .255.033.486.098.693.066.207.163.383.288.53.125.145.276.257.451.337.176.078.374.117.594.117.286 0 .53-.052.73-.156.2-.105.355-.247.466-.428.11-.182.176-.39.195-.622Zm3.39-.523v-.195c0-.268-.035-.509-.107-.72a1.56 1.56 0 0 0-.3-.545 1.277 1.277 0 0 0-.467-.344c-.18-.08-.38-.12-.6-.12-.218 0-.418.04-.598.12-.18.078-.335.193-.467.344-.13.15-.23.332-.302.545a2.241 2.241 0 0 0-.108.72v.195c0 .269.036.51.108.723a1.6 1.6 0 0 0 .307.544c.132.15.288.265.466.345.181.078.38.117.599.117.22 0 .42-.04.6-.117.18-.08.336-.195.464-.345.13-.15.23-.33.3-.544a2.31 2.31 0 0 0 .105-.723Zm-.612-.2v.2c0 .199-.02.375-.059.528a1.159 1.159 0 0 1-.166.388.73.73 0 0 1-.268.237.813.813 0 0 1-.364.078.807.807 0 0 1-.362-.078.772.772 0 0 1-.273-.237 1.167 1.167 0 0 1-.171-.388 2.144 2.144 0 0 1-.059-.528v-.2c0-.198.02-.373.059-.525.04-.153.095-.28.168-.383a.728.728 0 0 1 .271-.234.787.787 0 0 1 .362-.081c.135 0 .256.027.364.08.107.053.197.13.27.235.075.102.132.23.169.383.04.152.059.327.059.525Z" />
</symbol>

<!-- Client 2 -->
<symbol id="client-2">
  <path d="M50.114 5.935h-.137c-.21-.013-.42-.018-.63-.023h-.455c-.397 0-.802.01-1.204.03a.625.625 0 0 0-.091 0A28.275 28.275 0 0 0 37.08 8.625l-.432.208v22.142l1.012-.344c.888-.305 1.834-.58 2.813-.834a34.329 34.329 0 0 1 8.095-1.075v2.909a23.25 23.25 0 0 0-1.065.03h-.084a32.36 32.36 0 0 0-6.228.956 31.635 31.635 0 0 0-7.42 2.892V7.112a29.727 29.727 0 0 1 7.785-3.166A29.793 29.793 0 0 1 48.892 3h.427c.511.013 1.01.036 1.478.071 1.233.087 2.456.282 3.655.583v2.863a22.623 22.623 0 0 0-3.541-.534l-.073-.006c-.247-.021-.494-.042-.724-.042Zm5.039 2.926c.635.049 1.293.072 1.958.072a31.467 31.467 0 0 0 7.713-.99A31.777 31.777 0 0 0 72.24 5.05v27.89a29.815 29.815 0 0 1-7.786 3.166 29.943 29.943 0 0 1-7.337.944 22.405 22.405 0 0 1-5.565-.656V8.322c.43.1.873.191 1.323.267.739.125 1.518.216 2.277.272Zm14.194.217-1.012.34a44.2 44.2 0 0 1-2.813.842 34.263 34.263 0 0 1-8.406 1.078c-.66 0-1.267-.018-1.854-.056l-.807-.053v22.777l.693.06c.642.057 1.305.085 1.973.085a26.884 26.884 0 0 0 6.62-.857 27.764 27.764 0 0 0 5.174-1.86l.432-.208V9.078Z" clip-rule="evenodd"/>
  <path d="M35.737 45.212a1.491 1.491 0 0 0-1.126-.455 1.672 1.672 0 0 0-.65.122 1.464 1.464 0 0 0-.832.842c-.08.2-.119.413-.116.628v3.794c-.01.267.042.533.149.778.09.195.219.368.38.509.151.127.329.22.52.27.185.051.376.078.567.078.211.002.42-.043.612-.132a1.6 1.6 0 0 0 .96-1.465v-.424h-.993v.338a.88.88 0 0 1-.058.338.608.608 0 0 1-.144.214.697.697 0 0 1-.415.145.503.503 0 0 1-.465-.204.898.898 0 0 1-.132-.508v-3.538c-.006-.196.036-.39.122-.567a.507.507 0 0 1 .485-.229.527.527 0 0 1 .443.214.806.806 0 0 1 .164.509v.328h.982v-.387a1.79 1.79 0 0 0-.121-.664 1.56 1.56 0 0 0-.332-.534Zm5.892-.042a1.765 1.765 0 0 0-1.128-.418c-.202 0-.403.037-.592.107A1.56 1.56 0 0 0 39 45.7c-.1.231-.15.482-.145.735v3.638c-.007.256.043.51.145.745.09.196.22.37.384.509.152.14.33.25.524.32.19.07.39.106.592.107a1.714 1.714 0 0 0 1.128-.427c.158-.142.285-.315.374-.509.102-.234.151-.489.145-.745v-3.639a1.77 1.77 0 0 0-.145-.734 1.641 1.641 0 0 0-.374-.532Zm-.463 4.904a.656.656 0 0 1-.197.527.727.727 0 0 1-.934 0 .65.65 0 0 1-.197-.527v-3.639a.653.653 0 0 1 .197-.526.726.726 0 0 1 .934 0 .652.652 0 0 1 .197.526v3.64Zm8.201 1.626v-6.89h-.953l-1.253 3.647h-.017l-1.263-3.646h-.943v6.888h.984v-4.19h.018l.963 2.962h.491l.971-2.962h.018v4.19h.984Zm5.591-6.406c-.151-.17-.343-.3-.556-.377a2.184 2.184 0 0 0-.714-.107h-1.462v6.89h.982v-2.691h.505a1.8 1.8 0 0 0 .886-.188 1.43 1.43 0 0 0 .539-.527c.113-.183.19-.387.225-.6a4.9 4.9 0 0 0 .053-.783c.01-.33-.023-.662-.096-.984a1.466 1.466 0 0 0-.362-.633Zm-.506 2.1a.867.867 0 0 1-.091.359.552.552 0 0 1-.253.241 1.006 1.006 0 0 1-.463.087h-.448v-2.342h.506a.942.942 0 0 1 .443.086.556.556 0 0 1 .23.254 1 1 0 0 1 .086.384v.458c0 .16.01.326 0 .473h-.01Zm5.156-2.584h-.805l-1.518 6.89h.982l.288-1.48h1.339l.288 1.48h.981l-1.555-6.89Zm-.906 4.471.483-2.497h.018l.48 2.497h-.981Zm7.248-.321h-.018l-1.482-4.15h-.944v6.89h.981v-4.143h.02l1.5 4.142h.924v-6.888h-.981v4.15Zm5.998-4.15-.79 2.74h-.02l-.79-2.74H69.31l1.348 3.978v2.911h.982v-2.911l1.348-3.977h-1.04ZM33 53.645h.473v1.327h.321v-1.328h.47v-.272H33v.273Zm3.977-.273-.62 1.6h.341l.132-.364h.638l.136.364h.35l-.636-1.6h-.341Zm-.05.967.217-.593.217.593h-.435Zm3.981.043h.37v.206a.613.613 0 0 1-.38.135.404.404 0 0 1-.34-.153.67.67 0 0 1-.118-.417c0-.356.154-.534.46-.534a.337.337 0 0 1 .362.255l.316-.062c-.068-.312-.293-.47-.678-.47a.804.804 0 0 0-.559.206.78.78 0 0 0-.23.615.872.872 0 0 0 .205.6.776.776 0 0 0 .607.235.96.96 0 0 0 .678-.255v-.63h-.693v.27Zm4.015-1.01h-.324v1.6h1.12V54.7h-.796v-1.328Zm3.395 0h-.324v1.6h.324v-1.6Zm3.318 1.068-.655-1.068h-.313v1.6h.3v-1.045l.643 1.045h.322v-1.6h-.297v1.069Zm3.001-.173h.797v-.272h-.797v-.35h.857v-.273h-1.181v1.6h1.214V54.7h-.89v-.433Zm7.275-.264h-.63v-.63h-.32v1.599h.32v-.7h.63v.7h.322v-1.6h-.322v.631Zm3.018.264h.8v-.272h-.8v-.35h.86v-.273h-1.18v1.6h1.212V54.7h-.89v-.433Zm4.093.001c.279-.044.42-.191.42-.445a.383.383 0 0 0-.157-.356.904.904 0 0 0-.468-.094h-.678v1.599h.322v-.669h.063a.431.431 0 0 1 .2.036.336.336 0 0 1 .114.117l.349.508h.384l-.195-.312a1.115 1.115 0 0 0-.354-.384Zm-.324-.222h-.237v-.401h.253a.84.84 0 0 1 .326.038.21.21 0 0 1-.015.325.913.913 0 0 1-.327.038Zm3.411.221h.796v-.272h-.796v-.35h.86v-.273h-1.184v1.6H73V54.7h-.89v-.433Z"/>

</symbol>

<!-- Client 3 -->
<symbol id="client-3">
  <path d="M36.81 49.223c.016 0 .032.004.046.01a.123.123 0 0 1 .04.023l.22.208a1.819 1.819 0 0 1-.62.394c-.28.1-.58.148-.881.141a2.38 2.38 0 0 1-.829-.132 1.822 1.822 0 0 1-.623-.372 1.667 1.667 0 0 1-.403-.576 1.89 1.89 0 0 1-.141-.738 1.763 1.763 0 0 1 .152-.741c.096-.214.242-.41.428-.575a2.01 2.01 0 0 1 .662-.376 2.64 2.64 0 0 1 .853-.132c.27-.005.54.036.792.12.219.082.42.194.594.333l-.185.222a.179.179 0 0 1-.047.04.128.128 0 0 1-.075.017.183.183 0 0 1-.08-.024l-.1-.059-.137-.075a1.604 1.604 0 0 0-.436-.133 1.97 1.97 0 0 0-.329-.023 1.813 1.813 0 0 0-.613.099 1.41 1.41 0 0 0-.48.278c-.138.129-.244.28-.312.444a1.47 1.47 0 0 0-.113.585 1.5 1.5 0 0 0 .113.594 1.262 1.262 0 0 0 .765.715c.18.064.373.096.568.094.113.002.226-.005.337-.019a1.348 1.348 0 0 0 .729-.304.175.175 0 0 1 .105-.038Zm6.376-1.043c.004.25-.047.5-.149.734a1.59 1.59 0 0 1-.416.57c-.184.162-.406.29-.652.373a2.732 2.732 0 0 1-1.678 0 1.944 1.944 0 0 1-.65-.375 1.67 1.67 0 0 1-.419-.575 1.885 1.885 0 0 1 0-1.47c.094-.214.237-.41.42-.578a1.94 1.94 0 0 1 .649-.36c.54-.18 1.138-.18 1.678 0 .245.085.467.212.651.375a1.689 1.689 0 0 1 .566 1.306Zm-.58 0c.005-.2-.03-.4-.104-.59a1.213 1.213 0 0 0-.762-.719 1.971 1.971 0 0 0-1.22 0 1.314 1.314 0 0 0-.467.279 1.184 1.184 0 0 0-.298.44 1.71 1.71 0 0 0 0 1.18c.062.163.164.313.298.441.13.12.29.215.467.276.393.126.826.126 1.22 0 .177-.061.337-.156.466-.276.133-.128.233-.279.296-.441a1.5 1.5 0 0 0 .104-.59Zm4.93.619.058.132c.023-.047.042-.09.064-.132a1.1 1.1 0 0 1 .072-.13l1.41-2.19c.028-.039.053-.062.08-.07a.388.388 0 0 1 .116-.011h.417v3.563h-.494v-2.73a.929.929 0 0 1 0-.123l-1.419 2.221a.203.203 0 0 1-.083.081.252.252 0 0 1-.121.03h-.08a.25.25 0 0 1-.122-.03.2.2 0 0 1-.082-.08l-1.46-2.236v2.86h-.478v-3.556h.417a.389.389 0 0 1 .115.012.155.155 0 0 1 .078.068l1.44 2.193c.029.04.053.084.072.128Zm5.309-.177v1.334h-.552v-3.558h1.23c.233-.004.465.022.688.078.179.043.344.118.486.221a.92.92 0 0 1 .276.35c.065.145.097.299.094.455a.99.99 0 0 1-.4.811 1.42 1.42 0 0 1-.49.236 2.385 2.385 0 0 1-.664.082l-.668-.01Zm0-.382h.668c.145.001.29-.017.428-.055a.94.94 0 0 0 .309-.153.673.673 0 0 0 .254-.535.592.592 0 0 0-.056-.29.687.687 0 0 0-.193-.243 1.202 1.202 0 0 0-.742-.191h-.668v1.467Zm7.419 1.721h-.436a.21.21 0 0 1-.121-.033.224.224 0 0 1-.072-.082l-.375-.861h-1.886l-.389.86a.196.196 0 0 1-.069.08.21.21 0 0 1-.124.036h-.436l1.656-3.563h.574l1.678 3.563Zm-2.732-1.323h1.557l-.657-1.45a2.332 2.332 0 0 1-.125-.335l-.063.186c-.02.057-.041.108-.06.15l-.652 1.45Zm5.118-2.224a.234.234 0 0 1 .082.064l2.416 2.686v-2.766h.494v3.563h-.276a.273.273 0 0 1-.114-.02.3.3 0 0 1-.088-.067l-2.412-2.684a.964.964 0 0 1 0 .123v2.648h-.494v-3.563h.292a.262.262 0 0 1 .1.016Zm7.06 2.13v1.415h-.552v-1.415l-1.526-2.146h.494a.201.201 0 0 1 .119.03.31.31 0 0 1 .074.08l.955 1.385a1.394 1.394 0 0 1 .168.316l.072-.153c.027-.056.059-.11.094-.163l.941-1.394a.376.376 0 0 1 .072-.076.187.187 0 0 1 .119-.035h.5l-1.53 2.156Zm-22.447-8.127c.24.026.483.047.729.066 3.725-1.423 6.875-3.753 9.059-6.699 2.183-2.945 3.302-6.374 3.216-9.86l-4.104-3.507c.834 3.711.444 7.547-1.128 11.08-1.572 3.531-4.263 6.62-7.772 8.92Z"/>
  <path d="m45.797 40.254.11.019c3.75-2.292 6.61-5.492 8.208-9.187 1.599-3.695 1.863-7.714.758-11.539l-5.846-4.995c2.365 4.106 3.317 8.701 2.745 13.25-.572 4.55-2.644 8.868-5.974 12.452Zm19.828-12.212c-.993 3.83-3.406 7.284-6.879 9.85a21.958 21.958 0 0 1-3.268 2.004c2.828-.71 5.428-1.966 7.598-3.67 2.17-1.705 3.854-3.812 4.92-6.16l-2.37-2.024Z"/>
  <path d="m64.695 27.478-3.376-2.884c-.065 3.288-1.159 6.502-3.169 9.307-2.01 2.805-4.863 5.099-8.262 6.643h.017c.757 0 1.514-.039 2.266-.115 3.176-1.108 5.983-2.87 8.168-5.13 2.185-2.26 3.682-4.947 4.356-7.82ZM46.286 12.446 42.26 9c-3.6 1.189-6.697 3.278-8.884 5.995-2.188 2.718-3.364 5.936-3.375 9.234.014 3.643 1.449 7.18 4.08 10.048 2.63 2.868 6.305 4.905 10.442 5.789 3.694-3.846 5.857-8.597 6.174-13.564.317-4.967-1.228-9.89-4.41-14.056ZM74 26.948c-.015-4.323-2.031-8.466-5.61-11.523-3.577-3.057-8.426-4.78-13.486-4.793a21.774 21.774 0 0 0-6.838 1.087l24.659 21.068A14.086 14.086 0 0 0 74 26.947Z"/>
</symbol>

<!-- Client 4 -->
<symbol id="client-4">
  <g class="Logo">
    <g class="group">
      <path d="M24.078 21.518h-.003c-2.385 0-4.32 1.744-4.32 3.894v.003c0 2.15 1.935 3.894 4.32 3.894h.003c2.386 0 4.32-1.743 4.32-3.894v-.003c0-2.15-1.934-3.894-4.32-3.894Zm31.883-1.245c-.006-2.988-1.325-5.85-3.668-7.964C49.95 10.197 46.775 9.007 43.46 9c-3.314.005-6.491 1.195-8.835 3.308-2.344 2.113-3.664 4.977-3.67 7.965v16.474s25.003-2.51 25.005-16.471v-.003ZM11 42.154c.006 2.079.924 4.071 2.554 5.541 1.63 1.47 3.84 2.299 6.145 2.305 2.305-.006 4.514-.834 6.144-2.304 1.63-1.47 2.548-3.46 2.555-5.54V30.695S11 32.442 11 42.154Zm8.699 2.054c-.45 0-.891-.12-1.266-.346a2.115 2.115 0 0 1-.839-.922 1.867 1.867 0 0 1-.13-1.186 2 2 0 0 1 .624-1.052 2.365 2.365 0 0 1 1.167-.562c.442-.08.9-.039 1.316.117.416.155.772.419 1.022.756.25.338.384.735.384 1.141.001.27-.057.539-.171.789-.114.25-.282.477-.493.669a2.31 2.31 0 0 1-.74.447 2.495 2.495 0 0 1-.874.157v-.008Z" class="Vector"/>
      <path d="M35.609 40.515v4.266h-.879v-4.266h.879Zm1.7 1.822v.686h-1.94v-.686h1.94Zm.204-1.822v.688H35.37v-.688h2.144Zm4.014 2.033v.202c0 .325-.044.616-.132.873a1.92 1.92 0 0 1-.372.66c-.16.18-.352.317-.574.413a1.83 1.83 0 0 1-.736.143c-.267 0-.512-.048-.735-.143a1.648 1.648 0 0 1-.574-.413 1.93 1.93 0 0 1-.378-.66 2.696 2.696 0 0 1-.132-.873v-.202c0-.326.044-.617.132-.873a1.92 1.92 0 0 1 .372-.659c.162-.182.353-.32.574-.416a1.84 1.84 0 0 1 .736-.144c.27 0 .514.048.735.144.223.096.414.234.574.416.162.182.287.401.375.66.09.255.135.546.135.872Zm-.888.202v-.208c0-.226-.02-.425-.061-.597a1.295 1.295 0 0 0-.182-.434.784.784 0 0 0-.293-.264.838.838 0 0 0-.395-.09c-.149 0-.28.03-.396.09a.791.791 0 0 0-.29.264 1.333 1.333 0 0 0-.179.434 2.587 2.587 0 0 0-.061.597v.208c0 .225.02.424.061.598.041.172.102.317.182.437.08.117.178.206.293.266.115.06.247.091.395.091.149 0 .28-.03.396-.09a.786.786 0 0 0 .29-.267c.078-.12.138-.265.179-.437a2.61 2.61 0 0 0 .061-.598Zm3.741.914a.563.563 0 0 0-.035-.205.388.388 0 0 0-.123-.17 1.09 1.09 0 0 0-.255-.155 3.587 3.587 0 0 0-.425-.158 5.377 5.377 0 0 1-.55-.211 2.261 2.261 0 0 1-.457-.272 1.228 1.228 0 0 1-.31-.367 1.01 1.01 0 0 1-.112-.483 1 1 0 0 1 .117-.483c.078-.147.188-.272.328-.375.14-.106.307-.187.498-.244a2.28 2.28 0 0 1 .636-.085c.314 0 .589.057.823.17.234.114.416.269.545.466.13.197.196.423.196.677h-.873a.658.658 0 0 0-.079-.328.535.535 0 0 0-.234-.226.835.835 0 0 0-.393-.082.908.908 0 0 0-.38.07.507.507 0 0 0-.23.185.454.454 0 0 0-.075.258c0 .072.017.138.052.196a.594.594 0 0 0 .165.164c.072.051.16.099.266.144.106.045.228.089.366.132.233.07.437.149.613.237.177.088.326.186.445.296.12.11.209.233.27.372.06.139.09.296.09.472a1.024 1.024 0 0 1-.422.87c-.136.101-.3.178-.489.231a2.36 2.36 0 0 1-.636.08c-.21 0-.419-.028-.624-.083a1.894 1.894 0 0 1-.56-.255 1.285 1.285 0 0 1-.398-.433 1.242 1.242 0 0 1-.149-.624h.882c0 .133.02.245.061.337a.563.563 0 0 0 .173.222.743.743 0 0 0 .27.123c.105.026.22.038.345.038a.939.939 0 0 0 .375-.064.463.463 0 0 0 .293-.437Zm3.384-3.149v4.266h-.876v-4.266h.876Zm1.313 0v.688h-3.48v-.688h3.48Zm3.363 3.58v.686h-2.27v-.686h2.27Zm-1.983-3.58v4.266h-.88v-4.266h.88Zm1.687 1.737v.668h-1.975v-.668h1.975Zm.293-1.737v.688h-2.268v-.688h2.268Zm.516 0h1.59c.327 0 .607.049.841.146.237.098.418.243.545.434.127.191.19.427.19.706 0 .229-.038.425-.117.589a1.1 1.1 0 0 1-.325.407 1.685 1.685 0 0 1-.489.258l-.278.147h-1.383l-.006-.686h1.028a.805.805 0 0 0 .384-.082.537.537 0 0 0 .229-.229.703.703 0 0 0 .079-.34.773.773 0 0 0-.076-.354.514.514 0 0 0-.232-.228.855.855 0 0 0-.39-.08h-.712v3.578h-.878v-4.266Zm2.384 4.266-.972-1.902.928-.006.985 1.867v.04h-.94Zm4.615-1.52h-1.087v-.686h1.087a.892.892 0 0 0 .41-.082.527.527 0 0 0 .231-.235.86.86 0 0 0 0-.691.592.592 0 0 0-.231-.264.76.76 0 0 0-.41-.1h-.783v3.578h-.878v-4.266h1.66c.335 0 .62.06.86.182.24.119.423.284.55.495.127.21.19.452.19.723 0 .276-.063.514-.19.715-.127.201-.31.357-.55.466-.24.11-.525.164-.86.164Zm5.068.834v.686h-2.27v-.686h2.27Zm-1.983-3.58v4.266h-.88v-4.266h.88Zm1.687 1.737v.668H62.75v-.668h1.975Zm.293-1.737v.688H62.75v-.688h2.267Zm2.482 0v4.266h-.876v-4.266h.876Zm1.312 0v.688h-3.48v-.688h3.48Zm3.363 3.58v.686h-2.27v-.686h2.27Zm-1.983-3.58v4.266h-.879v-4.266h.879Zm1.687 1.737v.668h-1.974v-.668h1.974Zm.293-1.737v.688h-2.267v-.688h2.267Zm.516 0h1.59a2.2 2.2 0 0 1 .842.146c.236.098.418.243.545.434.126.191.19.427.19.706 0 .229-.04.425-.117.589a1.103 1.103 0 0 1-.325.407 1.687 1.687 0 0 1-.49.258l-.278.147h-1.383l-.006-.686h1.029a.805.805 0 0 0 .383-.082.538.538 0 0 0 .229-.229.704.704 0 0 0 .08-.34.771.771 0 0 0-.077-.354.514.514 0 0 0-.231-.228.855.855 0 0 0-.39-.08h-.712v3.578h-.879v-4.266Zm2.385 4.266-.973-1.902.929-.006.984 1.867v.04h-.94Zm3.68-1.117a.565.565 0 0 0-.036-.205.388.388 0 0 0-.123-.17 1.09 1.09 0 0 0-.255-.155 3.587 3.587 0 0 0-.424-.158 5.377 5.377 0 0 1-.551-.211 2.261 2.261 0 0 1-.457-.272 1.228 1.228 0 0 1-.31-.367 1.01 1.01 0 0 1-.112-.483 1 1 0 0 1 .117-.483c.078-.147.188-.272.328-.375.14-.106.307-.187.498-.244a2.28 2.28 0 0 1 .636-.085c.314 0 .589.057.823.17.235.114.416.269.545.466.131.197.196.423.196.677h-.873a.658.658 0 0 0-.079-.328.535.535 0 0 0-.234-.226.835.835 0 0 0-.393-.082.908.908 0 0 0-.38.07.507.507 0 0 0-.229.185.454.454 0 0 0-.076.258c0 .072.017.138.052.196a.594.594 0 0 0 .165.164c.072.051.16.099.266.144.106.045.228.089.366.132.233.07.437.149.613.237.177.088.326.186.445.296.12.11.209.233.27.372.06.139.09.296.09.472a1.024 1.024 0 0 1-.422.87c-.136.101-.3.178-.489.231-.19.053-.401.08-.635.08-.211 0-.42-.028-.624-.083a1.894 1.894 0 0 1-.56-.255 1.285 1.285 0 0 1-.399-.433 1.242 1.242 0 0 1-.149-.624h.882c0 .133.02.245.061.337a.563.563 0 0 0 .173.222.743.743 0 0 0 .27.123c.105.026.22.038.346.038a.939.939 0 0 0 .374-.064.463.463 0 0 0 .293-.437Z" class="FOSTER PETERS"/>
    </g>
  </g>
</symbol>

<!-- Client 5 -->
<symbol id="client-5">
  <path d="M26.792 44.373c.245.274.376.616.37.968.012.229-.033.458-.132.67-.1.211-.25.4-.441.552a2.68 2.68 0 0 1-1.664.446H22v-6.132h2.865a2.647 2.647 0 0 1 1.588.407c.184.14.331.316.428.515.096.2.14.416.127.633.017.338-.101.67-.333.937a1.59 1.59 0 0 1-.871.48c.388.064.738.25.988.524Zm-3.431-.926h1.225a1.25 1.25 0 0 0 .778-.203.732.732 0 0 0 .21-.272.662.662 0 0 0 .053-.328.686.686 0 0 0-.055-.325.753.753 0 0 0-.204-.274 1.28 1.28 0 0 0-.802-.206H23.36v1.608Zm2.123 2.352a.77.77 0 0 0 .226-.281.694.694 0 0 0 .064-.342.704.704 0 0 0-.067-.346.781.781 0 0 0-.23-.283 1.366 1.366 0 0 0-.832-.222h-1.284v1.687h1.301c.293.015.583-.06.822-.213Zm7.165 1.211-1.594-2.397h-.6v2.396h-1.37v-6.132h2.595a2.752 2.752 0 0 1 1.807.521c.363.333.582.772.617 1.237.036.465-.115.926-.424 1.3-.32.33-.757.551-1.238.624l1.697 2.45h-1.49Zm-2.193-3.233h1.121c.779 0 1.168-.31 1.168-.929a.831.831 0 0 0-.063-.371.908.908 0 0 0-.223-.318 1.307 1.307 0 0 0-.882-.248h-1.135l.014 1.866Zm9.687 1.998H37.41l-.483 1.234H35.49L38 40.946h1.554l2.499 6.063h-1.438l-.472-1.234Zm-.366-.928-.999-2.589-.998 2.588h1.997Zm9.746 2.163h-1.36l-3.052-4.17v4.17h-1.358v-6.133h1.358l3.051 4.194v-4.194h1.361v6.132Zm7.767-1.469a2.82 2.82 0 0 1-1.231 1.082c-.592.27-1.25.402-1.913.386h-2.423v-6.132h2.423a4.472 4.472 0 0 1 1.913.377c.521.237.95.61 1.231 1.07.28.499.426 1.05.426 1.609a3.28 3.28 0 0 1-.426 1.608Zm-1.557-.146a2.12 2.12 0 0 0 .602-1.464 2.12 2.12 0 0 0-.602-1.463 2.536 2.536 0 0 0-1.704-.522h-.945v3.97h.945a2.536 2.536 0 0 0 1.704-.521ZM40.995 6.767s17.566 5.97 17.194 14.61v14.614S40.635 30.017 41 21.377l-.006-14.61ZM73.839 32.57c3.317-2.056 7.155-3.33 11.161-3.703v-4.575c-4.616 1.601-8.531 4.505-11.161 8.277Z"/>
  <path d="M71.846 33.948C74.56 29.025 79.269 25.227 85 23.334V10.152s-25.018 8.505-24.489 20.809v20.806s1.115-.38 2.869-1.094c0-.665 0-1.336.08-2.01.518-5.712 3.534-11.005 8.386-14.715Z"/>
  <path d="M69.466 41.677a19.57 19.57 0 0 1 .876-4.26c-3.022 3.204-4.851 7.18-5.232 11.369-.036.395-.056.79-.066 1.198a75.86 75.86 0 0 0 4.812-2.282 19.43 19.43 0 0 1-.39-6.025Zm.995.075a18.567 18.567 0 0 0 .31 5.455c6.835-3.682 14.515-9.37 14.219-16.246v-.6c-4.883.493-9.452 2.415-13.005 5.471a18.817 18.817 0 0 0-1.524 5.92Z"/>
</symbol>

<!-- Client 6 -->
<symbol id="client-6">
  <path d="M53.53 27.443a2.953 2.953 0 0 1-.607-1.992v-2.888c0-.885.201-1.558.603-2.018.402-.46 1.092-.69 2.07-.688.92 0 1.572.196 1.958.588.42.5.625 1.111.578 1.727v.68h-1.644v-.688c.006-.225-.01-.45-.048-.673a.652.652 0 0 0-.234-.4.951.951 0 0 0-.596-.155 1.007 1.007 0 0 0-.627.164.769.769 0 0 0-.272.44 3.342 3.342 0 0 0-.065.715v3.505a1.79 1.79 0 0 0 .211.984.772.772 0 0 0 .328.239c.133.051.28.07.425.055.21.015.42-.042.582-.159a.706.706 0 0 0 .245-.426 3.84 3.84 0 0 0 .051-.702v-.711h1.645v.65a2.643 2.643 0 0 1-.57 1.815c-.377.429-1.02.643-1.967.643-.946 0-1.661-.229-2.067-.705Zm6.846.03c-.415-.45-.623-1.105-.623-1.972v-3.038c0-.858.208-1.507.623-1.948.416-.44 1.11-.66 2.084-.658.967 0 1.658.22 2.073.658.416.441.627 1.09.627 1.948v3.038c0 .858-.211 1.516-.633 1.969-.423.452-1.11.678-2.067.678-.957 0-1.665-.229-2.084-.675Zm2.85-.729c.149-.282.217-.59.197-.899v-3.72a1.65 1.65 0 0 0-.194-.88.776.776 0 0 0-.335-.243.907.907 0 0 0-.434-.052.92.92 0 0 0-.435.053.789.789 0 0 0-.338.241c-.15.275-.218.578-.197.881v3.738c-.021.309.047.617.197.899.096.094.214.17.347.223a1.161 1.161 0 0 0 .845 0 1.05 1.05 0 0 0 .347-.223v-.018Zm3.912-6.798h1.77l1.332 5.605 1.361-5.605h1.723l.174 8.09h-1.274l-.136-5.622-1.314 5.622h-1.021l-1.362-5.643-.126 5.643h-1.287l.16-8.09Zm8.345 0h2.758c1.588 0 2.383.766 2.383 2.297 0 1.467-.837 2.2-2.51 2.198h-.939v3.596h-1.702l.01-8.091Zm2.356 3.458c.168.018.339.005.5-.04.162-.043.31-.117.436-.216a1.31 1.31 0 0 0 .245-.913 2.53 2.53 0 0 0-.081-.735.596.596 0 0 0-.126-.222.705.705 0 0 0-.215-.163 1.763 1.763 0 0 0-.76-.129h-.66v2.418h.66Zm5.24-3.458h1.828l1.876 8.09h-1.587l-.37-1.865h-1.631l-.382 1.866h-1.61l1.876-8.091Zm1.563 5.288-.637-3.396-.637 3.396h1.273Zm3.656-5.288h1.192l2.28 4.615v-4.615h1.414v8.09H92.05l-2.295-4.817v4.817h-1.46l.003-8.09Zm8.195 5.006-1.896-4.995h1.597l1.157 3.208 1.086-3.208H100l-1.873 4.995v3.084h-1.634v-3.084Zm-40.335 6.622v.423h-1.39v3.287h-.581v-3.287H52.79v-.423h3.367Zm4.354 3.71h-.45a.2.2 0 0 1-.125-.035.193.193 0 0 1-.075-.085l-.402-.881h-1.927l-.402.881a.243.243 0 0 1-.06.1.208.208 0 0 1-.127.035h-.45l1.703-3.71h.592l1.723 3.695Zm-2.819-1.377H59.3l-.68-1.51a2.703 2.703 0 0 1-.127-.35c-.024.07-.044.138-.064.197l-.062.156-.674 1.507Zm5.754 1.013c.107.005.214.005.32 0a1.94 1.94 0 0 0 .273-.044 2.1 2.1 0 0 0 .245-.067c.075-.027.15-.06.228-.092v-.834h-.681a.142.142 0 0 1-.05-.006.128.128 0 0 1-.042-.023.086.086 0 0 1-.026-.03.075.075 0 0 1-.008-.038v-.285h1.321v1.422a2.57 2.57 0 0 1-.718.303 3.22 3.22 0 0 1-.426.076 5.153 5.153 0 0 1-.497.024 2.596 2.596 0 0 1-.858-.139 2.092 2.092 0 0 1-.681-.387 1.792 1.792 0 0 1-.44-.588 1.854 1.854 0 0 1-.156-.77 1.923 1.923 0 0 1 .153-.775c.098-.22.248-.42.44-.588a2.07 2.07 0 0 1 .68-.385c.292-.095.602-.141.913-.138.159 0 .317.01.473.032.139.02.274.051.405.094.12.039.234.088.34.147.105.058.204.123.297.194l-.163.23a.143.143 0 0 1-.056.05.17.17 0 0 1-.077.02.222.222 0 0 1-.106-.03 2.103 2.103 0 0 1-.166-.088 1.51 1.51 0 0 0-.229-.1 2.137 2.137 0 0 0-.313-.082 2.625 2.625 0 0 0-.432-.032 2.018 2.018 0 0 0-.657.103 1.44 1.44 0 0 0-.5.294c-.142.133-.25.29-.318.46a1.733 1.733 0 0 0 0 1.238c.075.174.191.333.341.467.14.127.31.227.497.294.217.064.446.089.674.073Zm5.427-.059h1.86v.423h-2.428v-3.71h.582l-.014 3.287Zm3.793.423h-.582v-3.71h.582v3.71Zm2.165-3.693a.28.28 0 0 1 .09.068l2.488 2.797a.884.884 0 0 1 0-.132v-2.765h.507v3.726h-.293a.276.276 0 0 1-.126-.021.33.33 0 0 1-.092-.07l-2.485-2.795v2.886h-.487v-3.711h.303c.033 0 .066.006.096.017Zm7.372-.017v.408H80.14v1.225h1.671v.394H80.14v1.266h2.063v.408H79.54v-3.701h2.663ZM21.195 8.659l25.852 6.334v22.195l-25.852-6.33v-22.2Zm-1.658-1.892v25.168l29.165 7.148V13.918L19.537 6.767Z"/>
  <path d="M35.168 50.767 6 43.613V18.447l29.168 7.15v25.17Z"/>
  <path d="m20.02 8.374 25.515 6.254-10.85 9.366-25.519-6.258L20.02 8.374Zm-.483-1.607L6 18.447l29.168 7.151 13.534-11.68-29.165-7.151ZM36.81 49.35l11.892-10.264-11.893-2.917v13.182Z"/>
</symbol>

<!-- FOOTER SOCMED LOGOS -->
<!-- Footer Instagram Logo -->
<symbol id="instagram-footer">    
    <path d="M23.9765 7.05607C23.9203 5.78085 23.7141 4.90416 23.4187 4.14449C23.1139 3.33812 22.6451 2.61617 22.0308 2.01602C21.4307 1.40652 20.704 0.932921 19.9069 0.632936C19.1429 0.337529 18.2708 0.131312 16.9955 0.0750879C15.7108 0.0141019 15.303 0 12.0445 0C8.78606 0 8.37821 0.0141019 7.09823 0.0703262C5.82302 0.126551 4.94633 0.332951 4.18684 0.628174C3.38029 0.932922 2.65835 1.40176 2.05819 2.01602C1.4487 2.61617 0.975279 3.34288 0.675111 4.13991C0.379704 4.90416 0.173487 5.77609 0.117263 7.0513C0.0562771 8.33604 0.0421753 8.7439 0.0421753 12.0023C0.0421753 15.2608 0.0562771 15.6686 0.112501 16.9486C0.168726 18.2238 0.375126 19.1005 0.670532 19.8602C0.975279 20.6666 1.4487 21.3885 2.05819 21.9887C2.65835 22.5982 3.38505 23.0718 4.18208 23.3718C4.94633 23.6672 5.81826 23.8734 7.09366 23.9296C8.37345 23.986 8.78148 23.9999 12.0399 23.9999C15.2984 23.9999 15.7062 23.986 16.9862 23.9296C18.2614 23.8734 19.1381 23.6672 19.8976 23.3718C21.5105 22.7482 22.7857 21.4729 23.4093 19.8602C23.7046 19.096 23.911 18.2238 23.9672 16.9486C24.0234 15.6686 24.0375 15.2608 24.0375 12.0023C24.0375 8.7439 24.0327 8.33604 23.9765 7.05607ZM21.8153 16.8549C21.7636 18.027 21.5667 18.6599 21.4027 19.0819C20.9994 20.1274 20.1696 20.9572 19.124 21.3605C18.7021 21.5246 18.0645 21.7215 16.897 21.7729C15.6311 21.8293 15.2515 21.8433 12.0493 21.8433C8.84705 21.8433 8.46264 21.8293 7.20134 21.7729C6.02924 21.7215 5.3963 21.5246 4.97435 21.3605C4.45404 21.1682 3.98044 20.8634 3.59603 20.4649C3.19751 20.0758 2.89277 19.6069 2.70047 19.0866C2.53637 18.6647 2.3395 18.027 2.28803 16.8596C2.23163 15.5937 2.21771 15.2139 2.21771 12.0117C2.21771 8.80946 2.23163 8.42505 2.28803 7.16394C2.3395 5.99183 2.53637 5.3589 2.70047 4.93694C2.89277 4.41645 3.19751 3.94303 3.60079 3.55843C3.98978 3.15992 4.45862 2.85517 4.97911 2.66306C5.40107 2.49896 6.03876 2.30209 7.2061 2.25044C8.47198 2.19422 8.85181 2.18011 12.0538 2.18011C15.2608 2.18011 15.6405 2.19422 16.9018 2.25044C18.0739 2.30209 18.7068 2.49896 19.1288 2.66306C19.6491 2.85517 20.1227 3.15992 20.5071 3.55843C20.9056 3.94761 21.2104 4.41645 21.4027 4.93694C21.5667 5.3589 21.7636 5.99641 21.8153 7.16394C21.8715 8.42981 21.8856 8.80946 21.8856 12.0117C21.8856 15.2139 21.8715 15.589 21.8153 16.8549Z" fill="#F4F4FD"/>
    <path d="M12.0445 5.83704C8.64086 5.83704 5.87927 8.59844 5.87927 12.0023C5.87927 15.4062 8.64086 18.1676 12.0445 18.1676C15.4484 18.1676 18.2098 15.4062 18.2098 12.0023C18.2098 8.59844 15.4484 5.83704 12.0445 5.83704ZM12.0445 16.0016C9.8364 16.0016 8.04528 14.2106 8.04528 12.0023C8.04528 9.79398 9.8364 8.00305 12.0445 8.00305C14.2529 8.00305 16.0438 9.79398 16.0438 12.0023C16.0438 14.2106 14.2529 16.0016 12.0445 16.0016Z" fill="#F4F4FD"/>
    <path d="M19.893 5.59336C19.893 6.3882 19.2486 7.03267 18.4535 7.03267C17.6587 7.03267 17.0142 6.3882 17.0142 5.59336C17.0142 4.79835 17.6587 4.15405 18.4535 4.15405C19.2486 4.15405 19.893 4.79835 19.893 5.59336Z" fill="#F4F4FD"/>
</symbol>

<!-- Footer Twitter Logo -->
<symbol id="twitter-footer">
    <path d="M24 4.5585C23.1075 4.95 22.1565 5.2095 21.165 5.3355C22.185 4.7265 22.9635 3.7695 23.3295 2.616C22.3785 3.183 21.3285 3.5835 20.2095 3.807C19.3065 2.8455 18.0195 2.25 16.6155 2.25C13.8915 2.25 11.6985 4.461 11.6985 7.1715C11.6985 7.5615 11.7315 7.9365 11.8125 8.2935C7.722 8.094 4.1025 6.1335 1.671 3.147C1.2465 3.8835 0.9975 4.7265 0.9975 5.634C0.9975 7.338 1.875 8.8485 3.183 9.723C2.3925 9.708 1.617 9.4785 0.96 9.117C0.96 9.132 0.96 9.1515 0.96 9.171C0.96 11.562 2.6655 13.548 4.902 14.0055C4.5015 14.115 4.065 14.1675 3.612 14.1675C3.297 14.1675 2.979 14.1495 2.6805 14.0835C3.318 16.032 5.127 17.4645 7.278 17.511C5.604 18.8205 3.4785 19.6095 1.1775 19.6095C0.774 19.6095 0.387 19.5915 0 19.542C2.1795 20.9475 4.7625 21.75 7.548 21.75C16.602 21.75 21.552 14.25 21.552 7.749C21.552 7.5315 21.5445 7.3215 21.534 7.113C22.5105 6.42 23.331 5.5545 24 4.5585Z" fill="#F4F4FD"/>
</symbol>

<!-- Footer Facebook Logo -->
<symbol id="facebook-footer">
    <path d="M15.997 3.985H18.188V0.169C17.81 0.117 16.51 0 14.996 0C11.837 0 9.67298 1.987 9.67298 5.639V9H6.18698V13.266H9.67298V24H13.947V13.267H17.292L17.823 9.001H13.946V6.062C13.947 4.829 14.279 3.985 15.997 3.985Z" fill="#F4F4FD"/>
</symbol>

<!-- Footer LinkedIn Logo -->
<symbol id="linkedin-footer">
    <path d="M23.9941 24.0001V23.9991H24.0001V15.1971C24.0001 10.8911 23.0731 7.5741 18.0391 7.5741C15.619 7.5741 13.995 8.9021 13.332 10.1611H13.262V7.9761H8.48904V23.9991H13.459V16.0651C13.459 13.9761 13.855 11.9561 16.442 11.9561C18.9911 11.9561 19.0291 14.3401 19.0291 16.1991V24.0001H23.9941Z" fill="#F4F4FD"/>
    <path d="M0.396027 7.97693H5.37203V23.9999H0.396027V7.97693Z" fill="#F4F4FD"/>
    <path d="M2.88203 0C1.29103 0 3.05176e-05 1.291 3.05176e-05 2.882C3.05176e-05 4.473 1.29103 5.791 2.88203 5.791C4.47303 5.791 5.76403 4.473 5.76403 2.882C5.76303 1.291 4.47203 0 2.88203 0V0Z" fill="#F4F4FD"/>
</symbol>


</svg>